<svg width="16" height="20" viewBox="0 0 16 20" fill="none" xmlns="http://www.w3.org/2000/svg">
<path d="M2 20H14C14.5304 20 15.0391 19.7893 15.4142 19.4142C15.7893 19.0391 16 18.5304 16 18V2C16 1.46957 15.7893 0.960859 15.4142 0.585786C15.0391 0.210714 14.5304 0 14 0H2C1.46957 0 0.960859 0.210714 0.585786 0.585786C0.210714 0.960859 0 1.46957 0 2V18C0 18.5304 0.210714 19.0391 0.585786 19.4142C0.960859 19.7893 1.46957 20 2 20ZM5 17H3V15H5V17ZM5 13H3V11H5V13ZM5 9H3V7H5V9ZM9 17H7V15H9V17ZM9 13H7V11H9V13ZM9 9H7V7H9V9ZM13 17H11V11H13V17ZM13 9H11V7H13V9ZM2 2H14V5H2V2Z" fill="white"/>
</svg>
