<svg width="17" height="5" viewBox="0 0 17 5" fill="none" xmlns="http://www.w3.org/2000/svg">
<path d="M15.2782 1.72259C15.0719 1.51629 14.7922 1.40039 14.5004 1.40039C14.2087 1.40039 13.9289 1.51629 13.7226 1.72259C13.5163 1.92889 13.4004 2.20869 13.4004 2.50039C13.4004 2.79209 13.5163 3.07189 13.7226 3.27819C13.9289 3.48449 14.2087 3.60039 14.5004 3.60039C14.7922 3.60039 15.0719 3.48449 15.2782 3.27819C15.4845 3.07189 15.6004 2.79209 15.6004 2.50039C15.6004 2.20869 15.4845 1.92889 15.2782 1.72259ZM8.50039 3.60039C8.79219 3.60039 9.07189 3.48449 9.27819 3.27819C9.48449 3.07189 9.60039 2.79209 9.60039 2.50039C9.60039 2.20869 9.48449 1.92889 9.27819 1.72259C9.07189 1.51629 8.79219 1.40039 8.50039 1.40039C8.20869 1.40039 7.92889 1.51629 7.72259 1.72259C7.51629 1.92889 7.40039 2.20869 7.40039 2.50039C7.40039 2.79209 7.51629 3.07189 7.72259 3.27819C7.92889 3.48449 8.20869 3.60039 8.50039 3.60039ZM2.50039 3.60039C2.79219 3.60039 3.07199 3.48449 3.27819 3.27819C3.48449 3.07189 3.60039 2.79209 3.60039 2.50039C3.60039 2.20869 3.48449 1.92889 3.27819 1.72259C3.07199 1.51629 2.79219 1.40039 2.50039 1.40039C2.20869 1.40039 1.92889 1.51629 1.72259 1.72259C1.51629 1.92889 1.40039 2.20869 1.40039 2.50039C1.40039 2.79209 1.51629 3.07189 1.72259 3.27819C1.92889 3.48449 2.20869 3.60039 2.50039 3.60039Z" fill="white"/>
<path d="M15.2782 1.72259L14.9254 2.07539M15.2782 1.72259C15.0719 1.51629 14.7922 1.40039 14.5004 1.40039C14.2087 1.40039 13.9289 1.51629 13.7226 1.72259C13.5163 1.92889 13.4004 2.20869 13.4004 2.50039C13.4004 2.79209 13.5163 3.07189 13.7226 3.27819C13.9289 3.48449 14.2087 3.60039 14.5004 3.60039C14.7922 3.60039 15.0719 3.48449 15.2782 3.27819M15.2782 1.72259C15.4845 1.92889 15.6004 2.20869 15.6004 2.50039C15.6004 2.79209 15.4845 3.07189 15.2782 3.27819M15.2782 3.27819L14.9247 2.92469M8.50039 3.60039C8.79219 3.60039 9.07189 3.48449 9.27819 3.27819C9.48449 3.07189 9.60039 2.79209 9.60039 2.50039C9.60039 2.20869 9.48449 1.92889 9.27819 1.72259C9.07189 1.51629 8.79219 1.40039 8.50039 1.40039C8.20869 1.40039 7.92889 1.51629 7.72259 1.72259C7.51629 1.92889 7.40039 2.20869 7.40039 2.50039C7.40039 2.79209 7.51629 3.07189 7.72259 3.27819C7.92889 3.48449 8.20869 3.60039 8.50039 3.60039ZM2.50039 3.60039C2.79219 3.60039 3.07199 3.48449 3.27819 3.27819C3.48449 3.07189 3.60039 2.79209 3.60039 2.50039C3.60039 2.20869 3.48449 1.92889 3.27819 1.72259C3.07199 1.51629 2.79219 1.40039 2.50039 1.40039C2.20869 1.40039 1.92889 1.51629 1.72259 1.72259C1.51629 1.92889 1.40039 2.20869 1.40039 2.50039C1.40039 2.79209 1.51629 3.07189 1.72259 3.27819C1.92889 3.48449 2.20869 3.60039 2.50039 3.60039Z" stroke="white" stroke-linecap="round" stroke-linejoin="round"/>
</svg>
