<svg width="19" height="21" viewBox="0 0 19 21" fill="none" xmlns="http://www.w3.org/2000/svg">
<path d="M17 7.5H13.625V4.875C13.625 3.78098 13.1904 2.73177 12.4168 1.95818C11.6432 1.1846 10.594 0.75 9.5 0.75C8.40598 0.75 7.35677 1.1846 6.58318 1.95818C5.8096 2.73177 5.375 3.78098 5.375 4.875V7.5H2C1.60218 7.5 1.22064 7.65804 0.93934 7.93934C0.658035 8.22064 0.5 8.60218 0.5 9V19.5C0.5 19.8978 0.658035 20.2794 0.93934 20.5607C1.22064 20.842 1.60218 21 2 21H17C17.3978 21 17.7794 20.842 18.0607 20.5607C18.342 20.2794 18.5 19.8978 18.5 19.5V9C18.5 8.60218 18.342 8.22064 18.0607 7.93934C17.7794 7.65804 17.3978 7.5 17 7.5ZM6.875 4.875C6.875 4.17881 7.15156 3.51113 7.64384 3.01884C8.13613 2.52656 8.80381 2.25 9.5 2.25C10.1962 2.25 10.8639 2.52656 11.3562 3.01884C11.8484 3.51113 12.125 4.17881 12.125 4.875V7.5H6.875V4.875Z" fill="#39979C"/>
</svg>
