<svg width="223" height="223" viewBox="0 0 223 223" fill="none" xmlns="http://www.w3.org/2000/svg">
<path d="M71.36 167.25L111.5 127.11L151.64 167.25L167.25 151.64L127.11 111.5L167.25 71.36L151.64 55.75L111.5 95.89L71.36 55.75L55.75 71.36L95.89 111.5L55.75 151.64L71.36 167.25ZM111.5 223C96.0758 223 81.5808 220.071 68.015 214.214C54.4492 208.364 42.6488 200.421 32.6138 190.386C22.5788 180.351 14.6362 168.551 8.7862 154.985C2.92873 141.419 0 126.924 0 111.5C0 96.0758 2.92873 81.5808 8.7862 68.015C14.6362 54.4492 22.5788 42.6488 32.6138 32.6138C42.6488 22.5788 54.4492 14.6325 68.015 8.77505C81.5808 2.92502 96.0758 0 111.5 0C126.924 0 141.419 2.92502 154.985 8.77505C168.551 14.6325 180.351 22.5788 190.386 32.6138C200.421 42.6488 208.364 54.4492 214.214 68.015C220.071 81.5808 223 96.0758 223 111.5C223 126.924 220.071 141.419 214.214 154.985C208.364 168.551 200.421 180.351 190.386 190.386C180.351 200.421 168.551 208.364 154.985 214.214C141.419 220.071 126.924 223 111.5 223Z" fill="#F11212"/>
</svg>
