<svg width="24" height="24" viewBox="0 0 24 24" fill="none" xmlns="http://www.w3.org/2000/svg">
<path d="M4.34067 0.984375C2.84067 0.984375 1.3388 2.10938 1.3388 4.35938L4.34067 10.3594L7.34067 4.35938C7.34067 2.10938 5.84067 0.984375 4.34067 0.984375ZM17.5735 2.8125C17.25 2.82609 16.936 2.8875 16.6735 2.94375L16.8516 3.76875C17.1141 3.71016 17.386 3.67313 17.6157 3.65625L17.5735 2.8125ZM4.34067 2.85938C5.17036 2.85938 5.84067 3.53109 5.84067 4.35938C5.84067 5.18906 5.17036 5.85938 4.34067 5.85938C3.51239 5.85938 2.84067 5.18906 2.84067 4.35938C2.84067 3.53109 3.51239 2.85938 4.34067 2.85938ZM18.5063 2.86875L18.3657 3.69844C18.5954 3.74672 18.825 3.80719 19.0266 3.92813L19.4344 3.1875C19.1485 3.03516 18.8297 2.89828 18.5063 2.86875ZM15.811 3.18281C15.525 3.29438 15.2391 3.39422 14.9954 3.49219L15.3282 4.26563C15.586 4.15594 15.8579 4.06031 16.0875 3.97969L15.811 3.18281ZM20.2032 3.81094L19.561 4.35938C19.7297 4.5525 19.861 4.79063 19.9641 4.98281L20.7188 4.60313C20.5594 4.29609 20.4188 4.06359 20.2032 3.81094ZM14.2125 3.85313C13.9266 3.99891 13.6922 4.12875 13.4391 4.25625L13.8516 4.99688C14.0954 4.85625 14.3625 4.72031 14.5782 4.6125L14.2125 3.85313ZM12.6985 4.69219C12.45 4.8375 12.2063 4.98281 11.9672 5.14219L12.4266 5.84531C12.6563 5.69531 12.8954 5.55469 13.1297 5.41406L12.6985 4.69219ZM21.0094 5.53125C20.7329 5.57812 20.4516 5.61094 20.175 5.64375C20.1938 5.87813 20.1797 6.13125 20.1329 6.32812L20.9532 6.52031C21 6.18281 21.0422 5.83594 21.0094 5.53125ZM11.2547 5.61094C11.0204 5.77031 10.7907 5.93438 10.5563 6.09375L11.0438 6.78281C11.2688 6.61875 11.4985 6.46406 11.7282 6.30469L11.2547 5.61094ZM9.86724 6.6C9.63286 6.76875 9.38911 6.95625 9.18755 7.11094L9.69849 7.78125C9.9563 7.59375 10.1344 7.45312 10.3688 7.27969L9.86724 6.6ZM19.8516 6.975C19.711 7.19063 19.5469 7.40625 19.3829 7.57031L19.9969 8.15625C20.1985 7.91719 20.4141 7.67344 20.5641 7.42969L19.8516 6.975ZM8.51724 7.63594C8.28755 7.81406 8.05786 7.99688 7.8563 8.16563L8.39067 8.81719C8.61099 8.63438 8.83599 8.44688 9.04224 8.29688L8.51724 7.63594ZM18.8016 8.10938C18.586 8.28281 18.361 8.45156 18.1547 8.59219L18.6375 9.28594C18.886 9.11719 19.1297 8.93438 19.3407 8.76563L18.8016 8.10938ZM7.20474 8.71406C6.98442 8.89219 6.77349 9.07969 6.55786 9.2625L7.1063 9.90469C7.31724 9.72188 7.52817 9.53906 7.7438 9.36094L7.20474 8.71406ZM17.4657 9.04219C17.2266 9.18281 16.9782 9.32813 16.7532 9.45L17.1563 10.1953C17.4094 10.0406 17.6954 9.90469 17.9063 9.76406L17.4657 9.04219ZM5.91567 9.82031C5.70474 10.0078 5.49849 10.1953 5.28755 10.3875L5.85474 11.0156C6.06099 10.8281 6.27192 10.6406 6.47817 10.4531L5.91567 9.82031ZM16.0172 9.83906C15.7688 9.96094 15.5204 10.0875 15.2719 10.2094L15.6329 10.9688C15.9235 10.8281 16.1391 10.7109 16.4016 10.5891L16.0172 9.83906ZM14.5172 10.5609C14.2594 10.6781 14.011 10.7906 13.7485 10.8984L14.0907 11.6719C14.3485 11.5594 14.6063 11.4422 14.8641 11.325L14.5172 10.5609ZM4.6688 10.9688C4.42974 11.1797 4.26333 11.3438 4.04536 11.5547L4.64067 12.1641C4.86099 11.9531 5.03911 11.7703 5.24536 11.5922L4.6688 10.9688ZM12.9797 11.2406C12.7219 11.3484 12.4641 11.4609 12.2063 11.5688L12.5344 12.3516C12.7969 12.2438 13.0547 12.1313 13.3125 12.0188L12.9797 11.2406ZM11.4282 11.8969C11.1704 12.0094 10.9125 12.1219 10.65 12.225L10.9782 13.0078C11.236 12.9 11.4985 12.7875 11.7563 12.6797L11.4282 11.8969ZM20.0907 12.2344C18.5907 12.2344 17.0907 13.3594 17.0907 15.6094L20.0907 21.6094L23.0907 15.6094C23.0907 13.3594 21.5907 12.2344 20.0907 12.2344ZM9.87192 12.5531C9.60474 12.675 9.32349 12.7875 9.0938 12.8859L9.42661 13.6641C9.70317 13.5469 9.96567 13.4344 10.2 13.3313L9.87192 12.5531ZM8.31567 13.2188C8.06255 13.3359 7.76724 13.4672 7.54224 13.5703L7.88911 14.3391C8.16567 14.2172 8.40942 14.0953 8.65317 13.9922L8.31567 13.2188ZM6.7688 13.9219C6.5063 14.0484 6.23442 14.1797 6.00005 14.2969L6.37974 15.0516C6.63286 14.9203 6.89536 14.7984 7.12505 14.6859L6.7688 13.9219ZM20.0907 14.1094C20.9204 14.1094 21.5907 14.7797 21.5907 15.6094C21.5907 16.4391 20.9204 17.1094 20.0907 17.1094C19.261 17.1094 18.5907 16.4391 18.5907 15.6094C18.5907 14.7797 19.261 14.1094 20.0907 14.1094ZM5.24067 14.6859C4.99224 14.8219 4.7438 14.9625 4.49067 15.1078L4.91255 15.8391C5.15161 15.6984 5.39536 15.5672 5.63911 15.4359L5.24067 14.6859ZM3.75474 15.5625C3.49177 15.7125 3.2377 15.9141 3.0188 16.0594L3.52974 16.7344C3.76271 16.5656 4.01349 16.3922 4.21411 16.2703L3.75474 15.5625ZM2.35317 16.6219C2.12817 16.8281 1.90645 17.0672 1.73442 17.2688L2.37661 17.8172C2.55708 17.5969 2.71411 17.4328 2.92505 17.2453L2.35317 16.6219ZM12.5625 16.6828L12.6375 17.5219C12.8813 17.4797 13.125 17.5078 13.3688 17.5453L13.5141 16.7156C13.2047 16.6688 12.8766 16.6359 12.5625 16.6828ZM10.8188 17.1516L11.1375 17.9344C11.3813 17.8266 11.6344 17.7422 11.8922 17.6625C11.8032 17.3953 11.7375 17.1234 11.6672 16.8516C11.3719 16.9359 11.0766 17.0484 10.8188 17.1516ZM14.4516 17.1094L13.9735 17.8031C14.1704 17.9484 14.3625 18.1031 14.5172 18.2953L15.1547 17.7422C14.9157 17.4984 14.7329 17.2687 14.4516 17.1094ZM10.0219 17.5312C9.76411 17.6625 9.51567 17.8125 9.26724 17.9578L9.6938 18.6844C9.93755 18.5531 10.1766 18.3984 10.4157 18.2719L10.0219 17.5312ZM1.21927 18.0469C1.07771 18.3516 0.962861 18.6797 0.909424 18.9703L1.73911 19.1156C1.78974 18.8484 1.86239 18.6562 1.9688 18.4266C1.71146 18.3141 1.46583 18.1781 1.21927 18.0469ZM8.53599 18.4125C8.29692 18.5672 8.06255 18.7219 7.82817 18.8813L8.29692 19.5844C8.5313 19.4297 8.76099 19.2703 8.99536 19.1156L8.53599 18.4125ZM15.6938 18.4688L14.986 18.9281C15.136 19.1531 15.2813 19.3875 15.4172 19.6266L16.1485 19.2047C15.9844 18.9422 15.8672 18.7078 15.6938 18.4688ZM7.12974 19.3594C6.89536 19.5141 6.66099 19.6641 6.4313 19.8281L6.90005 20.5312C7.12505 20.3672 7.36411 20.2125 7.60317 20.0531L7.12974 19.3594ZM1.74849 19.8047C1.47708 19.8609 1.20333 19.9078 0.930518 19.9594C0.979736 20.2875 1.11146 20.6063 1.23052 20.8594L1.99224 20.4938C1.89052 20.2594 1.79396 20.0156 1.74849 19.8047ZM16.5657 19.9359L15.8344 20.3578C15.9797 20.6109 16.1485 20.8828 16.2844 21.0984L16.9922 20.6438C16.8329 20.3953 16.6969 20.1609 16.5657 19.9359ZM5.73755 20.2875C5.50317 20.4328 5.27349 20.5734 5.02974 20.7094L5.44692 21.4453C5.69536 21.3 5.9438 21.1547 6.18286 21L5.73755 20.2875ZM2.39536 21.0516L1.8188 21.6703C2.07942 21.9188 2.40099 22.0828 2.75161 22.1578L2.93911 21.3375C2.73099 21.2953 2.53645 21.1922 2.39536 21.0516ZM4.31724 21.0656C4.08239 21.1734 3.83864 21.2578 3.58599 21.3094L3.77817 22.1344C4.07911 22.0734 4.36224 21.9609 4.64536 21.8438L4.31724 21.0656ZM17.4563 21.2906L16.8047 21.8203C17.0063 22.0688 17.2547 22.3078 17.4704 22.4766L17.9907 21.8109C17.7844 21.6516 17.6063 21.4594 17.4563 21.2906ZM18.586 22.1109L18.375 22.9313C18.7454 23.0063 19.0219 23.0297 19.3688 22.9922L19.2657 22.1531C19.036 22.1906 18.811 22.1672 18.586 22.1109Z" fill="white"/>
</svg>
