<svg width="35" height="33" viewBox="0 0 35 33" fill="none" xmlns="http://www.w3.org/2000/svg">
<path d="M12.5 0C11.2969 0.294531 9.71091 1.25312 8.35935 2.59141C6.85935 4.08594 5.63279 6 5.26716 7.64062L5.22185 18.2109L5.25076 30.5078L12.5937 27.3594L12.5 0ZM22.5 0L22.4062 27.3594L29.75 30.5078L29.7812 18.2578L29.7344 7.64062C29.3672 6 28.1484 4.08594 26.6406 2.59141C25.289 1.25312 23.7031 0.294531 22.5 0ZM1.97185 2.39609C1.31638 2.39609 0.799976 2.91406 0.799976 3.57031C0.799976 4.22656 1.31638 4.74219 1.97185 4.74219C2.62732 4.74219 3.14373 4.22656 3.14373 3.57031C3.14373 2.91406 2.62732 2.39609 1.97185 2.39609ZM33.0312 2.39609C32.375 2.39609 31.8593 2.91406 31.8593 3.57031C31.8593 4.22656 32.375 4.74219 33.0312 4.74219C33.6875 4.74219 34.2031 4.22656 34.2031 3.57031C34.2031 2.91406 33.6875 2.39609 33.0312 2.39609ZM0.273413 6.14844L0.162476 32.2422H3.75623L3.86716 6.14844H0.273413ZM31.1328 6.14844L31.25 32.2422H34.8437L34.7265 6.14844H31.1328ZM9.93748 13.0469H11.3437V16.7969H9.93748V13.0469ZM23.6562 13.0469H25.0625V16.7969H23.6562V13.0469Z" fill="#39979C"/>
</svg>
