<svg width="19" height="34" viewBox="0 0 19 34" fill="none" xmlns="http://www.w3.org/2000/svg">
<path d="M9.16667 33.6667C6.61111 33.6667 4.44444 32.7778 2.66667 31C0.888889 29.2222 0 27.0556 0 24.5V7C0 5.16667 0.652778 3.59722 1.95833 2.29167C3.26389 0.986113 4.83333 0.333336 6.66667 0.333336C8.5 0.333336 10.0694 0.986113 11.375 2.29167C12.6806 3.59722 13.3333 5.16667 13.3333 7V22.8333C13.3333 24 12.9306 24.9861 12.125 25.7917C11.3194 26.5972 10.3333 27 9.16667 27C8 27 7.01389 26.5972 6.20833 25.7917C5.40278 24.9861 5 24 5 22.8333V7H7.5V22.8333C7.5 23.3056 7.66 23.7017 7.98 24.0217C8.3 24.3417 8.69555 24.5011 9.16667 24.5C9.63889 24.5 10.035 24.34 10.355 24.02C10.675 23.7 10.8344 23.3044 10.8333 22.8333V7C10.8333 5.83334 10.4306 4.84722 9.625 4.04167C8.81944 3.23611 7.83333 2.83334 6.66667 2.83334C5.5 2.83334 4.51389 3.23611 3.70833 4.04167C2.90278 4.84722 2.5 5.83334 2.5 7V24.5C2.5 26.3333 3.15278 27.9028 4.45833 29.2083C5.76389 30.5139 7.33333 31.1667 9.16667 31.1667C11 31.1667 12.5694 30.5139 13.875 29.2083C15.1806 27.9028 15.8333 26.3333 15.8333 24.5V7H18.3333V24.5C18.3333 27.0556 17.4444 29.2222 15.6667 31C13.8889 32.7778 11.7222 33.6667 9.16667 33.6667Z" fill="#39979C"/>
</svg>
