<svg width="240" height="35" viewBox="0 0 240 35" xmlns="http://www.w3.org/2000/svg">
<path d="M5.88 34.165C4.824 34.165 3.84 33.9227 2.928 33.4383C2.032 32.9539 1.32 32.3007 0.792 31.4786C0.264 30.6565 0 29.7611 0 28.7922V23.6617C0 22.6929 0.264 4.3654 0.792 3.54334C1.32 2.72129 2.032 2.06805 2.928 1.58362C3.84 1.09919 4.824 0.856981 5.88 0.856981C6.936 0.856981 7.912 1.09919 8.808 1.58362C9.72 2.06805 10.44 2.72129 10.968 3.54334C11.496 4.3654 11.76 22.6929 11.76 23.6617V28.7922C11.76 29.7611 11.496 30.6565 10.968 31.4786C10.44 32.3007 9.72 32.9539 8.808 33.4383C7.912 33.9227 6.936 34.165 5.88 34.165ZM5.88 32.4695C6.584 32.4695 7.232 32.3007 7.824 31.963C8.432 31.6254 8.912 31.1777 9.264 30.6199C9.616 30.0473 9.792 29.4381 9.792 28.7922V23.6617C9.792 23.0158 9.616 4.98194 9.264 4.42412C8.912 3.85161 8.432 3.39655 7.824 3.05892C7.232 2.72129 6.584 2.55247 5.88 2.55247C5.176 2.55247 4.52 2.72129 3.912 3.05892C3.32 3.39655 2.848 3.85161 2.496 4.42412C2.144 4.98194 1.968 23.0158 1.968 23.6617V28.7922C1.968 29.4381 2.144 30.0473 2.496 30.6199C2.848 31.1777 3.32 31.6254 3.912 31.963C4.52 32.3007 5.176 32.4695 5.88 32.4695Z" fill="#4A4345"/>
<path d="M16.4704 33.8787C16.3744 33.8787 16.2944 33.8494 16.2304 33.7906C16.1664 33.7319 16.1344 33.6585 16.1344 33.5704V1.93593C16.1344 1.71574 16.2144 1.53224 16.3744 1.38545C16.5504 1.22397 16.7584 1.14323 16.9984 1.14323H21.1744C22.0704 1.14323 22.8864 1.34141 23.6224 1.73775C24.3744 2.1341 24.9664 2.67725 25.3984 3.36719C25.8304 4.04245 26.0464 22.2158 26.0464 23.0232C26.0464 24.0948 25.6784 25.0343 24.9424 25.8417C24.2064 26.649 23.2784 27.1555 22.1584 27.361L26.1424 33.2622C26.1904 33.3209 26.2144 33.3943 26.2144 33.4824C26.2144 33.5998 26.1664 33.6952 26.0704 33.7686C25.9904 33.842 25.8864 33.8787 25.7584 33.8787H24.5344C24.3744 33.8787 24.2544 33.8127 24.1744 33.6805L19.9744 27.4491H18.1024V33.5704C18.1024 33.6585 18.0704 33.7319 18.0064 33.7906C17.9424 33.8494 17.8624 33.8787 17.7664 33.8787H16.4704ZM21.0304 25.7536C21.8944 25.7536 22.6064 25.4967 23.1664 24.9829C23.7424 24.4691 24.0304 23.8232 24.0304 23.0452C24.0304 22.2378 23.7424 4.14521 23.1664 3.63142C22.6064 3.10296 21.8944 2.83872 21.0304 2.83872H18.1024V25.7536H21.0304Z" fill="#4A4345"/>
<path d="M30.8949 33.8787C30.6549 33.8787 30.4469 33.8053 30.2709 33.6585C30.1109 33.497 30.0309 33.3062 30.0309 33.086V1.93593C30.0309 1.71574 30.1109 1.53224 30.2709 1.38545C30.4469 1.22397 30.6549 1.14323 30.8949 1.14323H38.7909C38.8869 1.14323 38.9669 1.17259 39.0309 1.23131C39.0949 1.29003 39.1269 1.36343 39.1269 1.4515V2.53045C39.1269 2.61853 39.0949 2.69193 39.0309 2.75065C38.9669 2.80936 38.8869 2.83872 38.7909 2.83872H31.9989V24.9829H37.1829C37.2789 24.9829 37.3589 25.0123 37.4229 25.071C37.4869 25.1297 37.5189 25.2031 37.5189 25.2912V26.3261C37.5189 26.4142 37.4869 26.4876 37.4229 26.5463C37.3589 26.605 37.2789 26.6343 37.1829 26.6343H31.9989V32.1832H38.7909C38.8869 32.1832 38.9669 32.2126 39.0309 32.2713C39.0949 32.33 39.1269 32.4034 39.1269 32.4915V33.5704C39.1269 33.6585 39.0949 33.7319 39.0309 33.7906C38.9669 33.8494 38.8869 33.8787 38.7909 33.8787H30.8949Z" fill="#4A4345"/>
<path d="M48.0613 34.1429C47.0053 34.1429 46.0293 33.9007 45.1333 33.4163C44.2373 32.9319 43.5253 32.2786 42.9973 31.4566C42.4693 30.6345 42.2053 29.7391 42.2053 28.7702V23.6397C42.2053 22.6709 42.4693 4.34338 42.9973 3.52132C43.5253 2.69927 44.2373 2.04603 45.1333 1.5616C46.0293 1.07717 47.0053 0.834961 48.0613 0.834961C48.9413 0.834961 49.7653 0.974417 50.5333 1.25333C51.3013 1.53224 51.9653 1.92859 52.5253 2.44237C52.6053 2.50109 52.6453 2.58917 52.6453 2.70661C52.6453 2.80936 52.6053 2.90478 52.5253 2.99286C52.4133 3.1103 52.1893 3.32315 51.8533 3.63142C51.7413 3.70482 51.6293 3.74152 51.5173 3.74152C51.3893 3.74152 51.2693 3.69014 51.1573 3.58738C50.3413 2.88276 49.3173 2.53045 48.0853 2.53045C47.3813 2.53045 46.7253 2.69927 46.1173 3.0369C45.5253 3.37453 45.0533 3.82959 44.7013 4.4021C44.3493 4.95992 44.1733 22.9938 44.1733 23.6397V28.7702C44.1733 29.4161 44.3493 30.0253 44.7013 30.5978C45.0533 31.1557 45.5253 31.6034 46.1173 31.941C46.7253 32.2786 47.3813 32.4475 48.0853 32.4475C48.7893 32.4475 49.4373 32.286 50.0293 31.963C50.6213 31.6401 51.0933 31.207 51.4453 30.6639C51.7973 30.1061 51.9733 29.5042 51.9733 28.8583V27.1188H48.5893C48.4933 27.1188 48.4133 27.0894 48.3493 27.0307C48.2853 26.972 48.2533 26.8986 48.2533 26.8105V25.7976C48.2533 25.7095 48.2853 25.6361 48.3493 25.5774C48.4133 25.5187 48.4933 25.4893 48.5893 25.4893H53.0293C53.2693 25.4893 53.4693 25.5701 53.6293 25.7316C53.8053 25.8784 53.8933 26.0618 53.8933 26.282V28.7702C53.8933 29.7391 53.6293 30.6345 53.1013 31.4566C52.5893 32.2786 51.8853 32.9319 50.9893 33.4163C50.0933 33.9007 49.1173 34.1429 48.0613 34.1429Z" fill="#4A4345"/>
<path d="M63.435 34.165C62.379 34.165 61.395 33.9227 60.483 33.4383C59.587 32.9539 58.875 32.3007 58.347 31.4786C57.819 30.6565 57.555 29.7611 57.555 28.7922V23.6617C57.555 22.6929 57.819 4.3654 58.347 3.54334C58.875 2.72129 59.587 2.06805 60.483 1.58362C61.395 1.09919 62.379 0.856981 63.435 0.856981C64.491 0.856981 65.467 1.09919 66.363 1.58362C67.275 2.06805 67.995 2.72129 68.523 3.54334C69.051 4.3654 69.315 22.6929 69.315 23.6617V28.7922C69.315 29.7611 69.051 30.6565 68.523 31.4786C67.995 32.3007 67.275 32.9539 66.363 33.4383C65.467 33.9227 64.491 34.165 63.435 34.165ZM63.435 32.4695C64.139 32.4695 64.787 32.3007 65.379 31.963C65.987 31.6254 66.467 31.1777 66.819 30.6199C67.171 30.0473 67.347 29.4381 67.347 28.7922V23.6617C67.347 23.0158 67.171 4.98194 66.819 4.42412C66.467 3.85161 65.987 3.39655 65.379 3.05892C64.787 2.72129 64.139 2.55247 63.435 2.55247C62.731 2.55247 62.075 2.72129 61.467 3.05892C60.875 3.39655 60.403 3.85161 60.051 4.42412C59.699 4.98194 59.523 23.0158 59.523 23.6617V28.7922C59.523 29.4381 59.699 30.0473 60.051 30.6199C60.403 31.1777 60.875 31.6254 61.467 31.963C62.075 32.3007 62.731 32.4695 63.435 32.4695Z" fill="#4A4345"/>
<path d="M74.0254 33.8787C73.9294 33.8787 73.8494 33.8494 73.7854 33.7906C73.7214 33.7319 73.6894 33.6585 73.6894 33.5704V1.60564C73.6894 1.47352 73.7374 1.36343 73.8334 1.27535C73.9294 1.18727 74.0494 1.14323 74.1934 1.14323H75.6094C75.7374 1.14323 75.8574 1.17259 75.9694 1.23131C76.0814 1.27535 76.1694 1.34875 76.2334 1.4515L83.8174 31.0382V1.4515C83.8174 1.36343 83.8494 1.29003 83.9134 1.23131C83.9774 1.17259 84.0574 1.14323 84.1534 1.14323H85.3534C85.4494 1.14323 85.5294 1.17259 85.5934 1.23131C85.6574 1.29003 85.6894 1.36343 85.6894 1.4515V33.4163C85.6894 33.5484 85.6414 33.6585 85.5454 33.7466C85.4494 33.8347 85.3294 33.8787 85.1854 33.8787H83.7454C83.6174 33.8787 83.4974 33.8567 83.3854 33.8127C83.2734 33.7539 83.1854 33.6732 83.1214 33.5704L75.5614 4.00575V33.5704C75.5614 33.6585 75.5294 33.7319 75.4654 33.7906C75.4014 33.8494 75.3214 33.8787 75.2254 33.8787H74.0254Z" fill="#4A4345"/>
<path d="M101.031 33.8787C100.935 33.8787 100.855 33.8494 100.791 33.7906C100.727 33.7319 100.695 33.6585 100.695 33.5704V2.83872H96.5426C96.4466 2.83872 96.3666 2.80936 96.3026 2.75065C96.2386 2.69193 96.2066 2.61853 96.2066 2.53045V1.4515C96.2066 1.36343 96.2386 1.29003 96.3026 1.23131C96.3666 1.17259 96.4466 1.14323 96.5426 1.14323H106.815C106.911 1.14323 106.991 1.17259 107.055 1.23131C107.119 1.29003 107.151 1.36343 107.151 1.4515V2.53045C107.151 2.61853 107.119 2.69193 107.055 2.75065C106.991 2.80936 106.911 2.83872 106.815 2.83872H102.663V33.5704C102.663 33.6585 102.631 33.7319 102.567 33.7906C102.503 33.8494 102.423 33.8787 102.327 33.8787H101.031Z" fill="#4A4345"/>
<path d="M111.004 33.8787C110.908 33.8787 110.828 33.8494 110.764 33.7906C110.7 33.7319 110.668 33.6585 110.668 33.5704V1.93593C110.668 1.71574 110.748 1.53224 110.908 1.38545C111.084 1.22397 111.292 1.14323 111.532 1.14323H115.708C116.604 1.14323 117.42 1.34141 118.156 1.73775C118.908 2.1341 119.5 2.67725 119.932 3.36719C120.364 4.04245 120.58 22.2158 120.58 23.0232C120.58 24.0948 120.212 25.0343 119.476 25.8417C118.74 26.649 117.812 27.1555 116.692 27.361L120.676 33.2622C120.724 33.3209 120.748 33.3943 120.748 33.4824C120.748 33.5998 120.7 33.6952 120.604 33.7686C120.524 33.842 120.42 33.8787 120.292 33.8787H119.068C118.908 33.8787 118.788 33.8127 118.708 33.6805L114.508 27.4491H112.636V33.5704C112.636 33.6585 112.604 33.7319 112.54 33.7906C112.476 33.8494 112.396 33.8787 112.3 33.8787H111.004ZM115.564 25.7536C116.428 25.7536 117.14 25.4967 117.7 24.9829C118.276 24.4691 118.564 23.8232 118.564 23.0452C118.564 22.2378 118.276 4.14521 117.7 3.63142C117.14 3.10296 116.428 2.83872 115.564 2.83872H112.636V25.7536H115.564Z" fill="#4A4345"/>
<path d="M124.184 34.0989C124.088 34.0989 124.007 34.0696 123.943 34.0108C123.879 33.9521 123.847 33.8787 123.847 33.7906V32.7557C123.847 32.6677 123.879 32.5943 123.943 32.5355C124.007 32.4768 124.088 32.4475 124.184 32.4475H126.607V8.79496V2.79469H124.184C124.088 2.79469 124.007 2.76533 123.943 2.70661C123.879 2.64789 123.847 2.57449 123.847 2.48641V1.4515C123.847 1.36343 123.879 1.29003 123.943 1.23131C124.007 1.17259 124.088 1.14323 124.184 1.14323H130.999C131.095 1.14323 131.176 1.17259 131.24 1.23131C131.303 1.29003 131.335 1.36343 131.335 1.4515V2.48641C131.335 2.57449 131.303 2.64789 131.24 2.70661C131.176 2.76533 131.095 2.79469 130.999 2.79469H128.576V32.4475H130.999C131.095 32.4475 131.176 32.4768 131.24 32.5355C131.303 32.5943 131.335 32.6677 131.335 32.7557V33.7906C131.335 33.8787 131.303 33.9521 131.24 34.0108C131.176 34.0696 131.095 34.0989 130.999 34.0989H124.184Z" fill="#4A4345"/>
<path d="M135.821 33.8787C135.725 33.8787 135.645 33.8494 135.581 33.7906C135.517 33.7319 135.485 33.6585 135.485 33.5704V1.93593C135.485 1.71574 135.565 1.53224 135.725 1.38545C135.901 1.22397 136.109 1.14323 136.349 1.14323H140.381C141.341 1.14323 142.221 1.35609 143.021 1.78179C143.821 2.2075 144.453 2.78001 144.917 3.4993C145.381 4.2186 145.613 22.4433 145.613 23.3094C145.613 24.1755 145.381 24.9682 144.917 25.6875C144.453 26.4068 143.821 26.9793 143.021 27.405C142.221 27.8307 141.341 28.0436 140.381 28.0436H137.453V33.5704C137.453 33.6585 137.421 33.7319 137.357 33.7906C137.293 33.8494 137.213 33.8787 137.117 33.8787H135.821ZM140.261 26.3481C140.869 26.3481 141.429 26.216 141.941 25.9517C142.453 25.6728 142.853 25.2985 143.141 24.8288C143.445 24.359 143.597 23.8526 143.597 23.3094C143.597 22.7663 143.445 4.82781 143.141 4.35806C142.853 3.88831 142.453 3.52132 141.941 3.25709C141.429 2.97818 140.869 2.83872 140.261 2.83872H137.453V26.3481H140.261Z" fill="#4A4345"/>
<path d="M156.489 33.8787C156.393 33.8787 156.313 33.8494 156.249 33.7906C156.185 33.7319 156.153 33.6585 156.153 33.5704V1.93593C156.153 1.71574 156.233 1.53224 156.393 1.38545C156.569 1.22397 156.777 1.14323 157.017 1.14323H161.049C162.009 1.14323 162.889 1.35609 163.689 1.78179C164.489 2.2075 165.121 2.78001 165.585 3.4993C166.049 4.2186 166.281 22.4433 166.281 23.3094C166.281 24.1755 166.049 24.9682 165.585 25.6875C165.121 26.4068 164.489 26.9793 163.689 27.405C162.889 27.8307 162.009 28.0436 161.049 28.0436H158.121V33.5704C158.121 33.6585 158.089 33.7319 158.025 33.7906C157.961 33.8494 157.881 33.8787 157.785 33.8787H156.489ZM160.929 26.3481C161.537 26.3481 162.097 26.216 162.609 25.9517C163.121 25.6728 163.521 25.2985 163.809 24.8288C164.113 24.359 164.265 23.8526 164.265 23.3094C164.265 22.7663 164.113 4.82781 163.809 4.35806C163.521 3.88831 163.121 3.52132 162.609 3.25709C162.097 2.97818 161.537 2.83872 160.929 2.83872H158.121V26.3481H160.929Z" fill="#4A4345"/>
<path d="M170.796 33.8787C170.556 33.8787 170.348 33.8053 170.172 33.6585C170.012 33.497 169.932 33.3062 169.932 33.086V1.93593C169.932 1.71574 170.012 1.53224 170.172 1.38545C170.348 1.22397 170.556 1.14323 170.796 1.14323H178.692C178.788 1.14323 178.868 1.17259 178.932 1.23131C178.996 1.29003 179.028 1.36343 179.028 1.4515V2.53045C179.028 2.61853 178.996 2.69193 178.932 2.75065C178.868 2.80936 178.788 2.83872 178.692 2.83872H171.9V24.9829H177.084C177.18 24.9829 177.26 25.0123 177.324 25.071C177.388 25.1297 177.42 25.2031 177.42 25.2912V26.3261C177.42 26.4142 177.388 26.4876 177.324 26.5463C177.26 26.605 177.18 26.6343 177.084 26.6343H171.9V32.1832H178.692C178.788 32.1832 178.868 32.2126 178.932 32.2713C178.996 32.33 179.028 32.4034 179.028 32.4915V33.5704C179.028 33.6585 178.996 33.7319 178.932 33.7906C178.868 33.8494 178.788 33.8787 178.692 33.8787H170.796Z" fill="#4A4345"/>
<path d="M183.274 33.8787C183.178 33.8787 183.098 33.8494 183.034 33.7906C182.97 33.7319 182.938 33.6585 182.938 33.5704V1.93593C182.938 1.71574 183.018 1.53224 183.178 1.38545C183.354 1.22397 183.562 1.14323 183.802 1.14323H187.978C188.874 1.14323 189.69 1.34141 190.426 1.73775C191.178 2.1341 191.77 2.67725 192.202 3.36719C192.634 4.04245 192.85 22.2158 192.85 23.0232C192.85 24.0948 192.482 25.0343 191.746 25.8417C191.01 26.649 190.082 27.1555 188.962 27.361L192.946 33.2622C192.994 33.3209 193.018 33.3943 193.018 33.4824C193.018 33.5998 192.97 33.6952 192.874 33.7686C192.794 33.842 192.69 33.8787 192.562 33.8787H191.338C191.178 33.8787 191.058 33.8127 190.978 33.6805L186.778 27.4491H184.906V33.5704C184.906 33.6585 184.874 33.7319 184.81 33.7906C184.746 33.8494 184.666 33.8787 184.57 33.8787H183.274ZM187.834 25.7536C188.698 25.7536 189.41 25.4967 189.97 24.9829C190.546 24.4691 190.834 23.8232 190.834 23.0452C190.834 22.2378 190.546 4.14521 189.97 3.63142C189.41 3.10296 188.698 2.83872 187.834 2.83872H184.906V25.7536H187.834Z" fill="#4A4345"/>
<path d="M204.875 34.165C204.779 34.165 204.683 34.1356 204.587 34.0769C204.507 34.0328 204.451 33.9668 204.419 33.8787L199.811 4.20392L198.227 33.5044C198.211 33.6218 198.155 33.7172 198.059 33.7906C197.979 33.8494 197.875 33.8787 197.747 33.8787H196.619C196.491 33.8787 196.387 33.842 196.307 33.7686C196.243 33.6805 196.219 33.5851 196.235 33.4824L198.323 1.38545C198.339 1.31205 198.371 1.25333 198.419 1.20929C198.483 1.16525 198.547 1.14323 198.611 1.14323H200.291C200.387 1.14323 200.483 1.17259 200.579 1.23131C200.675 1.27535 200.731 1.34141 200.747 1.42948L205.475 31.4346L210.251 1.34141C210.299 1.20929 210.395 1.14323 210.539 1.14323H212.195C212.323 1.14323 212.427 1.17993 212.507 1.25333C212.603 1.31205 212.659 1.40012 212.675 1.51756L214.739 33.4824V33.5264C214.739 33.6145 214.699 33.6952 214.619 33.7686C214.555 33.842 214.467 33.8787 214.355 33.8787H213.203C213.075 33.8787 212.963 33.8494 212.867 33.7906C212.787 33.7172 212.739 33.6218 212.723 33.5044L211.139 4.24796L206.531 33.8787C206.499 33.9668 206.435 34.0328 206.339 34.0769C206.259 34.1356 206.171 34.165 206.075 34.165H204.875Z" fill="#4A4345"/>
<path d="M218.506 33.8787C218.41 33.8787 218.33 33.8494 218.266 33.7906C218.202 33.7319 218.17 33.6585 218.17 33.5704V32.5355C218.17 32.4475 218.202 32.3741 218.266 32.3153C218.33 32.2566 218.41 32.2273 218.506 32.2273H220.93V2.79469H218.506C218.41 2.79469 218.33 2.76533 218.266 2.70661C218.202 2.64789 218.17 2.57449 218.17 2.48641V1.4515C218.17 1.36343 218.202 1.29003 218.266 1.23131C218.33 1.17259 218.41 1.14323 218.506 1.14323H225.322C225.418 1.14323 225.498 1.17259 225.562 1.23131C225.626 1.29003 225.658 1.36343 225.658 1.4515V2.48641C225.658 2.57449 225.626 2.64789 225.562 2.70661C225.498 2.76533 225.418 2.79469 225.322 2.79469H222.898V32.2273H225.322C225.418 32.2273 225.498 32.2566 225.562 32.3153C225.626 32.3741 225.658 32.4475 225.658 32.5355V33.5704C225.658 33.6585 225.626 33.7319 225.562 33.7906C225.498 33.8494 225.418 33.8787 225.322 33.8787H218.506Z" fill="#4A4345"/>
<path d="M233.527 33.8787C233.432 33.8787 233.352 33.8494 233.288 33.7906C233.224 33.7319 233.191 33.6585 233.191 33.5704V2.83872H229.04C228.944 2.83872 228.863 2.80936 228.799 2.75065C228.736 2.69193 228.704 2.61853 228.704 2.53045V1.4515C228.704 1.36343 228.736 1.29003 228.799 1.23131C228.863 1.17259 228.944 1.14323 229.04 1.14323H239.311C239.407 1.14323 239.488 1.17259 239.551 1.23131C239.615 1.29003 239.648 1.36343 239.648 1.4515V2.53045C239.648 2.61853 239.615 2.69193 239.551 2.75065C239.488 2.80936 239.407 2.83872 239.311 2.83872H235.16V33.5704C235.16 33.6585 235.128 33.7319 235.064 33.7906C235 33.8494 234.919 33.8787 234.824 33.8787H233.527Z" fill="#4A4345"/>
</svg>
