<svg width="19" height="18" viewBox="0 0 19 18" fill="none" xmlns="http://www.w3.org/2000/svg">
<path d="M6.5 18C5.4 18 4.45833 17.6083 3.675 16.825C2.89167 16.0417 2.5 15.1 2.5 14V5.825C1.91667 5.60833 1.43733 5.24567 1.062 4.737C0.687333 4.229 0.5 3.65 0.5 3C0.5 2.16667 0.791667 1.45833 1.375 0.875C1.95833 0.291667 2.66667 0 3.5 0C4.33333 0 5.04167 0.291667 5.625 0.875C6.20833 1.45833 6.5 2.16667 6.5 3C6.5 3.65 6.31267 4.229 5.938 4.737C5.56267 5.24567 5.08333 5.60833 4.5 5.825V14C4.5 14.55 4.696 15.021 5.088 15.413C5.47933 15.8043 5.95 16 6.5 16C7.05 16 7.521 15.8043 7.913 15.413C8.30433 15.021 8.5 14.55 8.5 14V4C8.5 2.9 8.89167 1.95833 9.675 1.175C10.4583 0.391667 11.4 0 12.5 0C13.6 0 14.5417 0.391667 15.325 1.175C16.1083 1.95833 16.5 2.9 16.5 4V12.175C17.0833 12.3917 17.5627 12.754 17.938 13.262C18.3127 13.7707 18.5 14.35 18.5 15C18.5 15.8333 18.2083 16.5417 17.625 17.125C17.0417 17.7083 16.3333 18 15.5 18C14.6667 18 13.9583 17.7083 13.375 17.125C12.7917 16.5417 12.5 15.8333 12.5 15C12.5 14.35 12.6873 13.7667 13.062 13.25C13.4373 12.7333 13.9167 12.375 14.5 12.175V4C14.5 3.45 14.3043 2.97933 13.913 2.588C13.521 2.196 13.05 2 12.5 2C11.95 2 11.4793 2.196 11.088 2.588C10.696 2.97933 10.5 3.45 10.5 4V14C10.5 15.1 10.1083 16.0417 9.325 16.825C8.54167 17.6083 7.6 18 6.5 18Z" fill="#39979C"/>
</svg>
