<svg width="23" height="16" viewBox="0 0 23 16" fill="none" xmlns="http://www.w3.org/2000/svg">
<path d="M17.5 14.5C17.1022 14.5 16.7206 14.342 16.4393 14.0607C16.158 13.7794 16 13.3978 16 13C16 12.6022 16.158 12.2206 16.4393 11.9393C16.7206 11.658 17.1022 11.5 17.5 11.5C17.8978 11.5 18.2794 11.658 18.5607 11.9393C18.842 12.2206 19 12.6022 19 13C19 13.3978 18.842 13.7794 18.5607 14.0607C18.2794 14.342 17.8978 14.5 17.5 14.5ZM19 5.5L20.96 8H16.5V5.5M5.5 14.5C5.10218 14.5 4.72064 14.342 4.43934 14.0607C4.15804 13.7794 4 13.3978 4 13C4 12.6022 4.15804 12.2206 4.43934 11.9393C4.72064 11.658 5.10218 11.5 5.5 11.5C5.89782 11.5 6.27936 11.658 6.56066 11.9393C6.84196 12.2206 7 12.6022 7 13C7 13.3978 6.84196 13.7794 6.56066 14.0607C6.27936 14.342 5.89782 14.5 5.5 14.5ZM19.5 4H16.5V0H2.5C1.39 0 0.5 0.89 0.5 2V13H2.5C2.5 13.7956 2.81607 14.5587 3.37868 15.1213C3.94129 15.6839 4.70435 16 5.5 16C6.29565 16 7.05871 15.6839 7.62132 15.1213C8.18393 14.5587 8.5 13.7956 8.5 13H14.5C14.5 13.7956 14.8161 14.5587 15.3787 15.1213C15.9413 15.6839 16.7044 16 17.5 16C18.2956 16 19.0587 15.6839 19.6213 15.1213C20.1839 14.5587 20.5 13.7956 20.5 13H22.5V8L19.5 4Z" fill="#39979C"/>
</svg>
